<svg class="rich-terminal" viewBox="0 0 1482 904.0" xmlns="http://www.w3.org/2000/svg">
    <!-- Generated with Rich https://www.textualize.io -->
    <style>

    @font-face {
        font-family: "Fira Code";
        src: local("FiraCode-Regular"),
                url("https://cdnjs.cloudflare.com/ajax/libs/firacode/6.2.0/woff2/FiraCode-Regular.woff2") format("woff2"),
                url("https://cdnjs.cloudflare.com/ajax/libs/firacode/6.2.0/woff/FiraCode-Regular.woff") format("woff");
        font-style: normal;
        font-weight: 400;
    }
    @font-face {
        font-family: "Fira Code";
        src: local("FiraCode-Bold"),
                url("https://cdnjs.cloudflare.com/ajax/libs/firacode/6.2.0/woff2/FiraCode-Bold.woff2") format("woff2"),
                url("https://cdnjs.cloudflare.com/ajax/libs/firacode/6.2.0/woff/FiraCode-Bold.woff") format("woff");
        font-style: bold;
        font-weight: 700;
    }

    .terminal-3794272879-matrix {
        font-family: Fira Code, monospace;
        font-size: 20px;
        line-height: 24.4px;
        font-variant-east-asian: full-width;
    }

    .terminal-3794272879-title {
        font-size: 18px;
        font-weight: bold;
        font-family: arial;
    }

    .terminal-3794272879-r1 { fill: #c5c8c6 }
.terminal-3794272879-r2 { fill: #e0e0e0 }
.terminal-3794272879-r3 { fill: #7f7f7f }
.terminal-3794272879-r4 { fill: #ddedf9;font-weight: bold }
.terminal-3794272879-r5 { fill: #585858 }
.terminal-3794272879-r6 { fill: #0178d4 }
.terminal-3794272879-r7 { fill: #e1e1e1;font-weight: bold }
.terminal-3794272879-r8 { fill: #33424e }
.terminal-3794272879-r9 { fill: #6db2ff }
.terminal-3794272879-r10 { fill: #004295 }
.terminal-3794272879-r11 { fill: #ffa62b;font-weight: bold }
.terminal-3794272879-r12 { fill: #495259 }
    </style>

    <defs>
    <clipPath id="terminal-3794272879-clip-terminal">
      <rect x="0" y="0" width="1463.0" height="853.0" />
    </clipPath>
    <clipPath id="terminal-3794272879-line-0">
    <rect x="0" y="1.5" width="1464" height="24.65"/>
            </clipPath>
<clipPath id="terminal-3794272879-line-1">
    <rect x="0" y="25.9" width="1464" height="24.65"/>
            </clipPath>
<clipPath id="terminal-3794272879-line-2">
    <rect x="0" y="50.3" width="1464" height="24.65"/>
            </clipPath>
<clipPath id="terminal-3794272879-line-3">
    <rect x="0" y="74.7" width="1464" height="24.65"/>
            </clipPath>
<clipPath id="terminal-3794272879-line-4">
    <rect x="0" y="99.1" width="1464" height="24.65"/>
            </clipPath>
<clipPath id="terminal-3794272879-line-5">
    <rect x="0" y="123.5" width="1464" height="24.65"/>
            </clipPath>
<clipPath id="terminal-3794272879-line-6">
    <rect x="0" y="147.9" width="1464" height="24.65"/>
            </clipPath>
<clipPath id="terminal-3794272879-line-7">
    <rect x="0" y="172.3" width="1464" height="24.65"/>
            </clipPath>
<clipPath id="terminal-3794272879-line-8">
    <rect x="0" y="196.7" width="1464" height="24.65"/>
            </clipPath>
<clipPath id="terminal-3794272879-line-9">
    <rect x="0" y="221.1" width="1464" height="24.65"/>
            </clipPath>
<clipPath id="terminal-3794272879-line-10">
    <rect x="0" y="245.5" width="1464" height="24.65"/>
            </clipPath>
<clipPath id="terminal-3794272879-line-11">
    <rect x="0" y="269.9" width="1464" height="24.65"/>
            </clipPath>
<clipPath id="terminal-3794272879-line-12">
    <rect x="0" y="294.3" width="1464" height="24.65"/>
            </clipPath>
<clipPath id="terminal-3794272879-line-13">
    <rect x="0" y="318.7" width="1464" height="24.65"/>
            </clipPath>
<clipPath id="terminal-3794272879-line-14">
    <rect x="0" y="343.1" width="1464" height="24.65"/>
            </clipPath>
<clipPath id="terminal-3794272879-line-15">
    <rect x="0" y="367.5" width="1464" height="24.65"/>
            </clipPath>
<clipPath id="terminal-3794272879-line-16">
    <rect x="0" y="391.9" width="1464" height="24.65"/>
            </clipPath>
<clipPath id="terminal-3794272879-line-17">
    <rect x="0" y="416.3" width="1464" height="24.65"/>
            </clipPath>
<clipPath id="terminal-3794272879-line-18">
    <rect x="0" y="440.7" width="1464" height="24.65"/>
            </clipPath>
<clipPath id="terminal-3794272879-line-19">
    <rect x="0" y="465.1" width="1464" height="24.65"/>
            </clipPath>
<clipPath id="terminal-3794272879-line-20">
    <rect x="0" y="489.5" width="1464" height="24.65"/>
            </clipPath>
<clipPath id="terminal-3794272879-line-21">
    <rect x="0" y="513.9" width="1464" height="24.65"/>
            </clipPath>
<clipPath id="terminal-3794272879-line-22">
    <rect x="0" y="538.3" width="1464" height="24.65"/>
            </clipPath>
<clipPath id="terminal-3794272879-line-23">
    <rect x="0" y="562.7" width="1464" height="24.65"/>
            </clipPath>
<clipPath id="terminal-3794272879-line-24">
    <rect x="0" y="587.1" width="1464" height="24.65"/>
            </clipPath>
<clipPath id="terminal-3794272879-line-25">
    <rect x="0" y="611.5" width="1464" height="24.65"/>
            </clipPath>
<clipPath id="terminal-3794272879-line-26">
    <rect x="0" y="635.9" width="1464" height="24.65"/>
            </clipPath>
<clipPath id="terminal-3794272879-line-27">
    <rect x="0" y="660.3" width="1464" height="24.65"/>
            </clipPath>
<clipPath id="terminal-3794272879-line-28">
    <rect x="0" y="684.7" width="1464" height="24.65"/>
            </clipPath>
<clipPath id="terminal-3794272879-line-29">
    <rect x="0" y="709.1" width="1464" height="24.65"/>
            </clipPath>
<clipPath id="terminal-3794272879-line-30">
    <rect x="0" y="733.5" width="1464" height="24.65"/>
            </clipPath>
<clipPath id="terminal-3794272879-line-31">
    <rect x="0" y="757.9" width="1464" height="24.65"/>
            </clipPath>
<clipPath id="terminal-3794272879-line-32">
    <rect x="0" y="782.3" width="1464" height="24.65"/>
            </clipPath>
<clipPath id="terminal-3794272879-line-33">
    <rect x="0" y="806.7" width="1464" height="24.65"/>
            </clipPath>
    </defs>

    <rect fill="#292929" stroke="rgba(255,255,255,0.35)" stroke-width="1" x="1" y="1" width="1480" height="902" rx="8"/><text class="terminal-3794272879-title" fill="#c5c8c6" text-anchor="middle" x="740" y="27">machine</text>
            <g transform="translate(26,22)">
            <circle cx="0" cy="0" r="7" fill="#ff5f57"/>
            <circle cx="22" cy="0" r="7" fill="#febc2e"/>
            <circle cx="44" cy="0" r="7" fill="#28c840"/>
            </g>
        
    <g transform="translate(9, 41)" clip-path="url(#terminal-3794272879-clip-terminal)">
    <rect fill="#242f38" x="0" y="1.5" width="12.2" height="24.65" shape-rendering="crispEdges"/><rect fill="#242f38" x="12.2" y="1.5" width="12.2" height="24.65" shape-rendering="crispEdges"/><rect fill="#242f38" x="24.4" y="1.5" width="61" height="24.65" shape-rendering="crispEdges"/><rect fill="#242f38" x="85.4" y="1.5" width="12.2" height="24.65" shape-rendering="crispEdges"/><rect fill="#242f38" x="97.6" y="1.5" width="573.4" height="24.65" shape-rendering="crispEdges"/><rect fill="#242f38" x="671" y="1.5" width="85.4" height="24.65" shape-rendering="crispEdges"/><rect fill="#242f38" x="756.4" y="1.5" width="585.6" height="24.65" shape-rendering="crispEdges"/><rect fill="#242f38" x="1342" y="1.5" width="12.2" height="24.65" shape-rendering="crispEdges"/><rect fill="#242f38" x="1354.2" y="1.5" width="0" height="24.65" shape-rendering="crispEdges"/><rect fill="#242f38" x="1354.2" y="1.5" width="97.6" height="24.65" shape-rendering="crispEdges"/><rect fill="#242f38" x="1451.8" y="1.5" width="12.2" height="24.65" shape-rendering="crispEdges"/><rect fill="#1e1e1e" x="0" y="25.9" width="12.2" height="24.65" shape-rendering="crispEdges"/><rect fill="#1e1e1e" x="12.2" y="25.9" width="85.4" height="24.65" shape-rendering="crispEdges"/><rect fill="#1e1e1e" x="97.6" y="25.9" width="12.2" height="24.65" shape-rendering="crispEdges"/><rect fill="#1e1e1e" x="109.8" y="25.9" width="12.2" height="24.65" shape-rendering="crispEdges"/><rect fill="#1e1e1e" x="122" y="25.9" width="61" height="24.65" shape-rendering="crispEdges"/><rect fill="#1e1e1e" x="183" y="25.9" width="12.2" height="24.65" shape-rendering="crispEdges"/><rect fill="#1e1e1e" x="195.2" y="25.9" width="12.2" height="24.65" shape-rendering="crispEdges"/><rect fill="#1e1e1e" x="207.4" y="25.9" width="97.6" height="24.65" shape-rendering="crispEdges"/><rect fill="#1e1e1e" x="305" y="25.9" width="12.2" height="24.65" shape-rendering="crispEdges"/><rect fill="#0178d4" x="317.2" y="25.9" width="12.2" height="24.65" shape-rendering="crispEdges"/><rect fill="#0178d4" x="329.4" y="25.9" width="73.2" height="24.65" shape-rendering="crispEdges"/><rect fill="#0178d4" x="402.6" y="25.9" width="12.2" height="24.65" shape-rendering="crispEdges"/><rect fill="#1e1e1e" x="414.8" y="25.9" width="1049.2" height="24.65" shape-rendering="crispEdges"/><rect fill="#1e1e1e" x="0" y="50.3" width="317.2" height="24.65" shape-rendering="crispEdges"/><rect fill="#1e1e1e" x="317.2" y="50.3" width="12.2" height="24.65" shape-rendering="crispEdges"/><rect fill="#1e1e1e" x="329.4" y="50.3" width="73.2" height="24.65" shape-rendering="crispEdges"/><rect fill="#1e1e1e" x="402.6" y="50.3" width="12.2" height="24.65" shape-rendering="crispEdges"/><rect fill="#1e1e1e" x="414.8" y="50.3" width="1049.2" height="24.65" shape-rendering="crispEdges"/><rect fill="#1e1e1e" x="0" y="74.7" width="12.2" height="24.65" shape-rendering="crispEdges"/><rect fill="#1e1e1e" x="12.2" y="74.7" width="158.6" height="24.65" shape-rendering="crispEdges"/><rect fill="#1e1e1e" x="170.8" y="74.7" width="12.2" height="24.65" shape-rendering="crispEdges"/><rect fill="#1e1e1e" x="183" y="74.7" width="292.8" height="24.65" shape-rendering="crispEdges"/><rect fill="#1e1e1e" x="475.8" y="74.7" width="12.2" height="24.65" shape-rendering="crispEdges"/><rect fill="#1e1e1e" x="488" y="74.7" width="976" height="24.65" shape-rendering="crispEdges"/><rect fill="#1e1e1e" x="0" y="99.1" width="219.6" height="24.65" shape-rendering="crispEdges"/><rect fill="#1e1e1e" x="219.6" y="99.1" width="256.2" height="24.65" shape-rendering="crispEdges"/><rect fill="#1e1e1e" x="475.8" y="99.1" width="12.2" height="24.65" shape-rendering="crispEdges"/><rect fill="#1e1e1e" x="488" y="99.1" width="24.4" height="24.65" shape-rendering="crispEdges"/><rect fill="#1e1e1e" x="512.4" y="99.1" width="12.2" height="24.65" shape-rendering="crispEdges"/><rect fill="#1e1e1e" x="524.6" y="99.1" width="85.4" height="24.65" shape-rendering="crispEdges"/><rect fill="#1e1e1e" x="610" y="99.1" width="12.2" height="24.65" shape-rendering="crispEdges"/><rect fill="#1e1e1e" x="622.2" y="99.1" width="817.4" height="24.65" shape-rendering="crispEdges"/><rect fill="#1e1e1e" x="1439.6" y="99.1" width="24.4" height="24.65" shape-rendering="crispEdges"/><rect fill="#1e1e1e" x="0" y="123.5" width="207.4" height="24.65" shape-rendering="crispEdges"/><rect fill="#1e1e1e" x="207.4" y="123.5" width="268.4" height="24.65" shape-rendering="crispEdges"/><rect fill="#1e1e1e" x="475.8" y="123.5" width="12.2" height="24.65" shape-rendering="crispEdges"/><rect fill="#1e1e1e" x="488" y="123.5" width="24.4" height="24.65" shape-rendering="crispEdges"/><rect fill="#1e1e1e" x="512.4" y="123.5" width="268.4" height="24.65" shape-rendering="crispEdges"/><rect fill="#1e1e1e" x="780.8" y="123.5" width="658.8" height="24.65" shape-rendering="crispEdges"/><rect fill="#1e1e1e" x="1439.6" y="123.5" width="24.4" height="24.65" shape-rendering="crispEdges"/><rect fill="#1e1e1e" x="0" y="147.9" width="195.2" height="24.65" shape-rendering="crispEdges"/><rect fill="#1e1e1e" x="195.2" y="147.9" width="280.6" height="24.65" shape-rendering="crispEdges"/><rect fill="#1e1e1e" x="475.8" y="147.9" width="12.2" height="24.65" shape-rendering="crispEdges"/><rect fill="#1e1e1e" x="488" y="147.9" width="24.4" height="24.65" shape-rendering="crispEdges"/><rect fill="#1e1e1e" x="512.4" y="147.9" width="927.2" height="24.65" shape-rendering="crispEdges"/><rect fill="#1e1e1e" x="1439.6" y="147.9" width="24.4" height="24.65" shape-rendering="crispEdges"/><rect fill="#1e1e1e" x="0" y="172.3" width="183" height="24.65" shape-rendering="crispEdges"/><rect fill="#1e1e1e" x="183" y="172.3" width="292.8" height="24.65" shape-rendering="crispEdges"/><rect fill="#1e1e1e" x="475.8" y="172.3" width="12.2" height="24.65" shape-rendering="crispEdges"/><rect fill="#1e1e1e" x="488" y="172.3" width="24.4" height="24.65" shape-rendering="crispEdges"/><rect fill="#1e1e1e" x="512.4" y="172.3" width="927.2" height="24.65" shape-rendering="crispEdges"/><rect fill="#1e1e1e" x="1439.6" y="172.3" width="24.4" height="24.65" shape-rendering="crispEdges"/><rect fill="#1e1e1e" x="0" y="196.7" width="231.8" height="24.65" shape-rendering="crispEdges"/><rect fill="#1e1e1e" x="231.8" y="196.7" width="244" height="24.65" shape-rendering="crispEdges"/><rect fill="#1e1e1e" x="475.8" y="196.7" width="12.2" height="24.65" shape-rendering="crispEdges"/><rect fill="#1e1e1e" x="488" y="196.7" width="24.4" height="24.65" shape-rendering="crispEdges"/><rect fill="#1e1e1e" x="512.4" y="196.7" width="927.2" height="24.65" shape-rendering="crispEdges"/><rect fill="#1e1e1e" x="1439.6" y="196.7" width="24.4" height="24.65" shape-rendering="crispEdges"/><rect fill="#1e1e1e" x="0" y="221.1" width="329.4" height="24.65" shape-rendering="crispEdges"/><rect fill="#1e1e1e" x="329.4" y="221.1" width="146.4" height="24.65" shape-rendering="crispEdges"/><rect fill="#1e1e1e" x="475.8" y="221.1" width="12.2" height="24.65" shape-rendering="crispEdges"/><rect fill="#1e1e1e" x="488" y="221.1" width="24.4" height="24.65" shape-rendering="crispEdges"/><rect fill="#1e1e1e" x="512.4" y="221.1" width="927.2" height="24.65" shape-rendering="crispEdges"/><rect fill="#1e1e1e" x="1439.6" y="221.1" width="24.4" height="24.65" shape-rendering="crispEdges"/><rect fill="#1e1e1e" x="0" y="245.5" width="268.4" height="24.65" shape-rendering="crispEdges"/><rect fill="#1e1e1e" x="268.4" y="245.5" width="207.4" height="24.65" shape-rendering="crispEdges"/><rect fill="#1e1e1e" x="475.8" y="245.5" width="12.2" height="24.65" shape-rendering="crispEdges"/><rect fill="#1e1e1e" x="488" y="245.5" width="24.4" height="24.65" shape-rendering="crispEdges"/><rect fill="#1e1e1e" x="512.4" y="245.5" width="927.2" height="24.65" shape-rendering="crispEdges"/><rect fill="#1e1e1e" x="1439.6" y="245.5" width="24.4" height="24.65" shape-rendering="crispEdges"/><rect fill="#1e1e1e" x="0" y="269.9" width="231.8" height="24.65" shape-rendering="crispEdges"/><rect fill="#1e1e1e" x="231.8" y="269.9" width="244" height="24.65" shape-rendering="crispEdges"/><rect fill="#1e1e1e" x="475.8" y="269.9" width="12.2" height="24.65" shape-rendering="crispEdges"/><rect fill="#1e1e1e" x="488" y="269.9" width="24.4" height="24.65" shape-rendering="crispEdges"/><rect fill="#1e1e1e" x="512.4" y="269.9" width="927.2" height="24.65" shape-rendering="crispEdges"/><rect fill="#1e1e1e" x="1439.6" y="269.9" width="24.4" height="24.65" shape-rendering="crispEdges"/><rect fill="#1e1e1e" x="0" y="294.3" width="231.8" height="24.65" shape-rendering="crispEdges"/><rect fill="#1e1e1e" x="231.8" y="294.3" width="244" height="24.65" shape-rendering="crispEdges"/><rect fill="#1e1e1e" x="475.8" y="294.3" width="12.2" height="24.65" shape-rendering="crispEdges"/><rect fill="#1e1e1e" x="488" y="294.3" width="24.4" height="24.65" shape-rendering="crispEdges"/><rect fill="#1e1e1e" x="512.4" y="294.3" width="927.2" height="24.65" shape-rendering="crispEdges"/><rect fill="#1e1e1e" x="1439.6" y="294.3" width="24.4" height="24.65" shape-rendering="crispEdges"/><rect fill="#1e1e1e" x="0" y="318.7" width="244" height="24.65" shape-rendering="crispEdges"/><rect fill="#1e1e1e" x="244" y="318.7" width="231.8" height="24.65" shape-rendering="crispEdges"/><rect fill="#1e1e1e" x="475.8" y="318.7" width="12.2" height="24.65" shape-rendering="crispEdges"/><rect fill="#1e1e1e" x="488" y="318.7" width="24.4" height="24.65" shape-rendering="crispEdges"/><rect fill="#1e1e1e" x="512.4" y="318.7" width="927.2" height="24.65" shape-rendering="crispEdges"/><rect fill="#1e1e1e" x="1439.6" y="318.7" width="24.4" height="24.65" shape-rendering="crispEdges"/><rect fill="#1e1e1e" x="0" y="343.1" width="268.4" height="24.65" shape-rendering="crispEdges"/><rect fill="#1e1e1e" x="268.4" y="343.1" width="207.4" height="24.65" shape-rendering="crispEdges"/><rect fill="#1e1e1e" x="475.8" y="343.1" width="12.2" height="24.65" shape-rendering="crispEdges"/><rect fill="#1e1e1e" x="488" y="343.1" width="24.4" height="24.65" shape-rendering="crispEdges"/><rect fill="#1e1e1e" x="512.4" y="343.1" width="927.2" height="24.65" shape-rendering="crispEdges"/><rect fill="#1e1e1e" x="1439.6" y="343.1" width="24.4" height="24.65" shape-rendering="crispEdges"/><rect fill="#1e1e1e" x="0" y="367.5" width="231.8" height="24.65" shape-rendering="crispEdges"/><rect fill="#1e1e1e" x="231.8" y="367.5" width="244" height="24.65" shape-rendering="crispEdges"/><rect fill="#1e1e1e" x="475.8" y="367.5" width="12.2" height="24.65" shape-rendering="crispEdges"/><rect fill="#1e1e1e" x="488" y="367.5" width="24.4" height="24.65" shape-rendering="crispEdges"/><rect fill="#1e1e1e" x="512.4" y="367.5" width="927.2" height="24.65" shape-rendering="crispEdges"/><rect fill="#1e1e1e" x="1439.6" y="367.5" width="24.4" height="24.65" shape-rendering="crispEdges"/><rect fill="#1e1e1e" x="0" y="391.9" width="207.4" height="24.65" shape-rendering="crispEdges"/><rect fill="#1e1e1e" x="207.4" y="391.9" width="268.4" height="24.65" shape-rendering="crispEdges"/><rect fill="#1e1e1e" x="475.8" y="391.9" width="12.2" height="24.65" shape-rendering="crispEdges"/><rect fill="#1e1e1e" x="488" y="391.9" width="24.4" height="24.65" shape-rendering="crispEdges"/><rect fill="#1e1e1e" x="512.4" y="391.9" width="927.2" height="24.65" shape-rendering="crispEdges"/><rect fill="#1e1e1e" x="1439.6" y="391.9" width="24.4" height="24.65" shape-rendering="crispEdges"/><rect fill="#1e1e1e" x="0" y="416.3" width="292.8" height="24.65" shape-rendering="crispEdges"/><rect fill="#1e1e1e" x="292.8" y="416.3" width="183" height="24.65" shape-rendering="crispEdges"/><rect fill="#1e1e1e" x="475.8" y="416.3" width="12.2" height="24.65" shape-rendering="crispEdges"/><rect fill="#1e1e1e" x="488" y="416.3" width="24.4" height="24.65" shape-rendering="crispEdges"/><rect fill="#1e1e1e" x="512.4" y="416.3" width="927.2" height="24.65" shape-rendering="crispEdges"/><rect fill="#1e1e1e" x="1439.6" y="416.3" width="24.4" height="24.65" shape-rendering="crispEdges"/><rect fill="#1e1e1e" x="0" y="440.7" width="219.6" height="24.65" shape-rendering="crispEdges"/><rect fill="#1e1e1e" x="219.6" y="440.7" width="256.2" height="24.65" shape-rendering="crispEdges"/><rect fill="#1e1e1e" x="475.8" y="440.7" width="12.2" height="24.65" shape-rendering="crispEdges"/><rect fill="#1e1e1e" x="488" y="440.7" width="24.4" height="24.65" shape-rendering="crispEdges"/><rect fill="#1e1e1e" x="512.4" y="440.7" width="927.2" height="24.65" shape-rendering="crispEdges"/><rect fill="#1e1e1e" x="1439.6" y="440.7" width="24.4" height="24.65" shape-rendering="crispEdges"/><rect fill="#1e1e1e" x="0" y="465.1" width="256.2" height="24.65" shape-rendering="crispEdges"/><rect fill="#1e1e1e" x="256.2" y="465.1" width="219.6" height="24.65" shape-rendering="crispEdges"/><rect fill="#1e1e1e" x="475.8" y="465.1" width="12.2" height="24.65" shape-rendering="crispEdges"/><rect fill="#1e1e1e" x="488" y="465.1" width="24.4" height="24.65" shape-rendering="crispEdges"/><rect fill="#1e1e1e" x="512.4" y="465.1" width="927.2" height="24.65" shape-rendering="crispEdges"/><rect fill="#1e1e1e" x="1439.6" y="465.1" width="24.4" height="24.65" shape-rendering="crispEdges"/><rect fill="#1e1e1e" x="0" y="489.5" width="219.6" height="24.65" shape-rendering="crispEdges"/><rect fill="#1e1e1e" x="219.6" y="489.5" width="256.2" height="24.65" shape-rendering="crispEdges"/><rect fill="#1e1e1e" x="475.8" y="489.5" width="12.2" height="24.65" shape-rendering="crispEdges"/><rect fill="#1e1e1e" x="488" y="489.5" width="24.4" height="24.65" shape-rendering="crispEdges"/><rect fill="#1e1e1e" x="512.4" y="489.5" width="927.2" height="24.65" shape-rendering="crispEdges"/><rect fill="#1e1e1e" x="1439.6" y="489.5" width="24.4" height="24.65" shape-rendering="crispEdges"/><rect fill="#1e1e1e" x="0" y="513.9" width="475.8" height="24.65" shape-rendering="crispEdges"/><rect fill="#1e1e1e" x="475.8" y="513.9" width="12.2" height="24.65" shape-rendering="crispEdges"/><rect fill="#1e1e1e" x="488" y="513.9" width="24.4" height="24.65" shape-rendering="crispEdges"/><rect fill="#1e1e1e" x="512.4" y="513.9" width="927.2" height="24.65" shape-rendering="crispEdges"/><rect fill="#1e1e1e" x="1439.6" y="513.9" width="24.4" height="24.65" shape-rendering="crispEdges"/><rect fill="#1e1e1e" x="0" y="538.3" width="475.8" height="24.65" shape-rendering="crispEdges"/><rect fill="#1e1e1e" x="475.8" y="538.3" width="12.2" height="24.65" shape-rendering="crispEdges"/><rect fill="#1e1e1e" x="488" y="538.3" width="24.4" height="24.65" shape-rendering="crispEdges"/><rect fill="#1e1e1e" x="512.4" y="538.3" width="927.2" height="24.65" shape-rendering="crispEdges"/><rect fill="#1e1e1e" x="1439.6" y="538.3" width="24.4" height="24.65" shape-rendering="crispEdges"/><rect fill="#1e1e1e" x="0" y="562.7" width="475.8" height="24.65" shape-rendering="crispEdges"/><rect fill="#1e1e1e" x="475.8" y="562.7" width="12.2" height="24.65" shape-rendering="crispEdges"/><rect fill="#1e1e1e" x="488" y="562.7" width="24.4" height="24.65" shape-rendering="crispEdges"/><rect fill="#1e1e1e" x="512.4" y="562.7" width="927.2" height="24.65" shape-rendering="crispEdges"/><rect fill="#1e1e1e" x="1439.6" y="562.7" width="24.4" height="24.65" shape-rendering="crispEdges"/><rect fill="#1e1e1e" x="0" y="587.1" width="475.8" height="24.65" shape-rendering="crispEdges"/><rect fill="#1e1e1e" x="475.8" y="587.1" width="12.2" height="24.65" shape-rendering="crispEdges"/><rect fill="#1e1e1e" x="488" y="587.1" width="24.4" height="24.65" shape-rendering="crispEdges"/><rect fill="#1e1e1e" x="512.4" y="587.1" width="927.2" height="24.65" shape-rendering="crispEdges"/><rect fill="#1e1e1e" x="1439.6" y="587.1" width="24.4" height="24.65" shape-rendering="crispEdges"/><rect fill="#1e1e1e" x="0" y="611.5" width="475.8" height="24.65" shape-rendering="crispEdges"/><rect fill="#1e1e1e" x="475.8" y="611.5" width="12.2" height="24.65" shape-rendering="crispEdges"/><rect fill="#1e1e1e" x="488" y="611.5" width="24.4" height="24.65" shape-rendering="crispEdges"/><rect fill="#1e1e1e" x="512.4" y="611.5" width="927.2" height="24.65" shape-rendering="crispEdges"/><rect fill="#1e1e1e" x="1439.6" y="611.5" width="24.4" height="24.65" shape-rendering="crispEdges"/><rect fill="#1e1e1e" x="0" y="635.9" width="475.8" height="24.65" shape-rendering="crispEdges"/><rect fill="#1e1e1e" x="475.8" y="635.9" width="12.2" height="24.65" shape-rendering="crispEdges"/><rect fill="#1e1e1e" x="488" y="635.9" width="24.4" height="24.65" shape-rendering="crispEdges"/><rect fill="#1e1e1e" x="512.4" y="635.9" width="927.2" height="24.65" shape-rendering="crispEdges"/><rect fill="#1e1e1e" x="1439.6" y="635.9" width="24.4" height="24.65" shape-rendering="crispEdges"/><rect fill="#1e1e1e" x="0" y="660.3" width="475.8" height="24.65" shape-rendering="crispEdges"/><rect fill="#1e1e1e" x="475.8" y="660.3" width="12.2" height="24.65" shape-rendering="crispEdges"/><rect fill="#1e1e1e" x="488" y="660.3" width="24.4" height="24.65" shape-rendering="crispEdges"/><rect fill="#1e1e1e" x="512.4" y="660.3" width="927.2" height="24.65" shape-rendering="crispEdges"/><rect fill="#1e1e1e" x="1439.6" y="660.3" width="24.4" height="24.65" shape-rendering="crispEdges"/><rect fill="#1e1e1e" x="0" y="684.7" width="475.8" height="24.65" shape-rendering="crispEdges"/><rect fill="#1e1e1e" x="475.8" y="684.7" width="12.2" height="24.65" shape-rendering="crispEdges"/><rect fill="#1e1e1e" x="488" y="684.7" width="24.4" height="24.65" shape-rendering="crispEdges"/><rect fill="#1e1e1e" x="512.4" y="684.7" width="927.2" height="24.65" shape-rendering="crispEdges"/><rect fill="#1e1e1e" x="1439.6" y="684.7" width="24.4" height="24.65" shape-rendering="crispEdges"/><rect fill="#1e1e1e" x="0" y="709.1" width="475.8" height="24.65" shape-rendering="crispEdges"/><rect fill="#1e1e1e" x="475.8" y="709.1" width="12.2" height="24.65" shape-rendering="crispEdges"/><rect fill="#1e1e1e" x="488" y="709.1" width="24.4" height="24.65" shape-rendering="crispEdges"/><rect fill="#1e1e1e" x="512.4" y="709.1" width="927.2" height="24.65" shape-rendering="crispEdges"/><rect fill="#1e1e1e" x="1439.6" y="709.1" width="24.4" height="24.65" shape-rendering="crispEdges"/><rect fill="#1e1e1e" x="0" y="733.5" width="475.8" height="24.65" shape-rendering="crispEdges"/><rect fill="#1e1e1e" x="475.8" y="733.5" width="12.2" height="24.65" shape-rendering="crispEdges"/><rect fill="#1e1e1e" x="488" y="733.5" width="24.4" height="24.65" shape-rendering="crispEdges"/><rect fill="#1e1e1e" x="512.4" y="733.5" width="927.2" height="24.65" shape-rendering="crispEdges"/><rect fill="#1e1e1e" x="1439.6" y="733.5" width="24.4" height="24.65" shape-rendering="crispEdges"/><rect fill="#0178d4" x="0" y="757.9" width="195.2" height="24.65" shape-rendering="crispEdges"/><rect fill="#1e1e1e" x="195.2" y="757.9" width="280.6" height="24.65" shape-rendering="crispEdges"/><rect fill="#1e1e1e" x="475.8" y="757.9" width="12.2" height="24.65" shape-rendering="crispEdges"/><rect fill="#1e1e1e" x="488" y="757.9" width="24.4" height="24.65" shape-rendering="crispEdges"/><rect fill="#1e1e1e" x="512.4" y="757.9" width="927.2" height="24.65" shape-rendering="crispEdges"/><rect fill="#1e1e1e" x="1439.6" y="757.9" width="24.4" height="24.65" shape-rendering="crispEdges"/><rect fill="#0178d4" x="0" y="782.3" width="36.6" height="24.65" shape-rendering="crispEdges"/><rect fill="#0178d4" x="36.6" y="782.3" width="109.8" height="24.65" shape-rendering="crispEdges"/><rect fill="#0178d4" x="146.4" y="782.3" width="48.8" height="24.65" shape-rendering="crispEdges"/><rect fill="#1e1e1e" x="195.2" y="782.3" width="280.6" height="24.65" shape-rendering="crispEdges"/><rect fill="#1e1e1e" x="475.8" y="782.3" width="12.2" height="24.65" shape-rendering="crispEdges"/><rect fill="#1e1e1e" x="488" y="782.3" width="24.4" height="24.65" shape-rendering="crispEdges"/><rect fill="#1e1e1e" x="512.4" y="782.3" width="927.2" height="24.65" shape-rendering="crispEdges"/><rect fill="#1e1e1e" x="1439.6" y="782.3" width="24.4" height="24.65" shape-rendering="crispEdges"/><rect fill="#0178d4" x="0" y="806.7" width="195.2" height="24.65" shape-rendering="crispEdges"/><rect fill="#1e1e1e" x="195.2" y="806.7" width="280.6" height="24.65" shape-rendering="crispEdges"/><rect fill="#1e1e1e" x="475.8" y="806.7" width="12.2" height="24.65" shape-rendering="crispEdges"/><rect fill="#1e1e1e" x="488" y="806.7" width="976" height="24.65" shape-rendering="crispEdges"/><rect fill="#242f38" x="0" y="831.1" width="36.6" height="24.65" shape-rendering="crispEdges"/><rect fill="#242f38" x="36.6" y="831.1" width="61" height="24.65" shape-rendering="crispEdges"/><rect fill="#242f38" x="97.6" y="831.1" width="36.6" height="24.65" shape-rendering="crispEdges"/><rect fill="#242f38" x="134.2" y="831.1" width="61" height="24.65" shape-rendering="crispEdges"/><rect fill="#242f38" x="195.2" y="831.1" width="1122.4" height="24.65" shape-rendering="crispEdges"/><rect fill="#242f38" x="1317.6" y="831.1" width="12.2" height="24.65" shape-rendering="crispEdges"/><rect fill="#242f38" x="1329.8" y="831.1" width="24.4" height="24.65" shape-rendering="crispEdges"/><rect fill="#242f38" x="1354.2" y="831.1" width="97.6" height="24.65" shape-rendering="crispEdges"/><rect fill="#242f38" x="1451.8" y="831.1" width="12.2" height="24.65" shape-rendering="crispEdges"/>
    <g class="terminal-3794272879-matrix">
    <text class="terminal-3794272879-r2" x="12.2" y="20" textLength="12.2" clip-path="url(#terminal-3794272879-line-0)">⭘</text><text class="terminal-3794272879-r2" x="671" y="20" textLength="85.4" clip-path="url(#terminal-3794272879-line-0)">machine</text><text class="terminal-3794272879-r1" x="1464" y="20" textLength="12.2" clip-path="url(#terminal-3794272879-line-0)">
</text><text class="terminal-3794272879-r3" x="12.2" y="44.4" textLength="85.4" clip-path="url(#terminal-3794272879-line-1)">Plugins</text><text class="terminal-3794272879-r3" x="122" y="44.4" textLength="61" clip-path="url(#terminal-3794272879-line-1)">Store</text><text class="terminal-3794272879-r3" x="207.4" y="44.4" textLength="97.6" clip-path="url(#terminal-3794272879-line-1)">Services</text><text class="terminal-3794272879-r4" x="329.4" y="44.4" textLength="73.2" clip-path="url(#terminal-3794272879-line-1)">Config</text><text class="terminal-3794272879-r1" x="1464" y="44.4" textLength="12.2" clip-path="url(#terminal-3794272879-line-1)">
</text><text class="terminal-3794272879-r5" x="0" y="68.8" textLength="317.2" clip-path="url(#terminal-3794272879-line-2)">━━━━━━━━━━━━━━━━━━━━━━━━━━</text><text class="terminal-3794272879-r5" x="317.2" y="68.8" textLength="12.2" clip-path="url(#terminal-3794272879-line-2)">╸</text><text class="terminal-3794272879-r6" x="329.4" y="68.8" textLength="73.2" clip-path="url(#terminal-3794272879-line-2)">━━━━━━</text><text class="terminal-3794272879-r5" x="402.6" y="68.8" textLength="12.2" clip-path="url(#terminal-3794272879-line-2)">╺</text><text class="terminal-3794272879-r5" x="414.8" y="68.8" textLength="1049.2" clip-path="url(#terminal-3794272879-line-2)">━━━━━━━━━━━━━━━━━━━━━━━━━━━━━━━━━━━━━━━━━━━━━━━━━━━━━━━━━━━━━━━━━━━━━━━━━━━━━━━━━━━━━━</text><text class="terminal-3794272879-r1" x="1464" y="68.8" textLength="12.2" clip-path="url(#terminal-3794272879-line-2)">
</text><text class="terminal-3794272879-r7" x="12.2" y="93.2" textLength="158.6" clip-path="url(#terminal-3794272879-line-3)">Configuration</text><text class="terminal-3794272879-r8" x="475.8" y="93.2" textLength="12.2" clip-path="url(#terminal-3794272879-line-3)">│</text><text class="terminal-3794272879-r1" x="1464" y="93.2" textLength="12.2" clip-path="url(#terminal-3794272879-line-3)">
</text><text class="terminal-3794272879-r2" x="0" y="117.6" textLength="207.4" clip-path="url(#terminal-3794272879-line-4)">&#160;&#160;📦&#160;agent-support</text><text class="terminal-3794272879-r8" x="475.8" y="117.6" textLength="12.2" clip-path="url(#terminal-3794272879-line-4)">│</text><text class="terminal-3794272879-r7" x="524.6" y="117.6" textLength="85.4" clip-path="url(#terminal-3794272879-line-4)">Details</text><text class="terminal-3794272879-r1" x="1464" y="117.6" textLength="12.2" clip-path="url(#terminal-3794272879-line-4)">
</text><text class="terminal-3794272879-r2" x="0" y="142" textLength="195.2" clip-path="url(#terminal-3794272879-line-5)">&#160;&#160;📦&#160;auth-support</text><text class="terminal-3794272879-r8" x="475.8" y="142" textLength="12.2" clip-path="url(#terminal-3794272879-line-5)">│</text><text class="terminal-3794272879-r2" x="512.4" y="142" textLength="268.4" clip-path="url(#terminal-3794272879-line-5)">Select&#160;an&#160;item&#160;to&#160;view</text><text class="terminal-3794272879-r1" x="1464" y="142" textLength="12.2" clip-path="url(#terminal-3794272879-line-5)">
</text><text class="terminal-3794272879-r2" x="0" y="166.4" textLength="183" clip-path="url(#terminal-3794272879-line-6)">&#160;&#160;📦&#160;cli-support</text><text class="terminal-3794272879-r8" x="475.8" y="166.4" textLength="12.2" clip-path="url(#terminal-3794272879-line-6)">│</text><text class="terminal-3794272879-r1" x="1464" y="166.4" textLength="12.2" clip-path="url(#terminal-3794272879-line-6)">
</text><text class="terminal-3794272879-r2" x="0" y="190.8" textLength="170.8" clip-path="url(#terminal-3794272879-line-7)">&#160;&#160;📦&#160;embeddings</text><text class="terminal-3794272879-r8" x="475.8" y="190.8" textLength="12.2" clip-path="url(#terminal-3794272879-line-7)">│</text><text class="terminal-3794272879-r1" x="1464" y="190.8" textLength="12.2" clip-path="url(#terminal-3794272879-line-7)">
</text><text class="terminal-3794272879-r2" x="0" y="215.2" textLength="219.6" clip-path="url(#terminal-3794272879-line-8)">&#160;&#160;📦&#160;memory-support</text><text class="terminal-3794272879-r8" x="475.8" y="215.2" textLength="12.2" clip-path="url(#terminal-3794272879-line-8)">│</text><text class="terminal-3794272879-r1" x="1464" y="215.2" textLength="12.2" clip-path="url(#terminal-3794272879-line-8)">
</text><text class="terminal-3794272879-r2" x="0" y="239.6" textLength="317.2" clip-path="url(#terminal-3794272879-line-9)">&#160;&#160;📦&#160;model-provider-support</text><text class="terminal-3794272879-r8" x="475.8" y="239.6" textLength="12.2" clip-path="url(#terminal-3794272879-line-9)">│</text><text class="terminal-3794272879-r1" x="1464" y="239.6" textLength="12.2" clip-path="url(#terminal-3794272879-line-9)">
</text><text class="terminal-3794272879-r2" x="0" y="264" textLength="256.2" clip-path="url(#terminal-3794272879-line-10)">&#160;&#160;📦&#160;processor-support</text><text class="terminal-3794272879-r8" x="475.8" y="264" textLength="12.2" clip-path="url(#terminal-3794272879-line-10)">│</text><text class="terminal-3794272879-r1" x="1464" y="264" textLength="12.2" clip-path="url(#terminal-3794272879-line-10)">
</text><text class="terminal-3794272879-r2" x="0" y="288.4" textLength="219.6" clip-path="url(#terminal-3794272879-line-11)">&#160;&#160;📦&#160;prompt-support</text><text class="terminal-3794272879-r8" x="475.8" y="288.4" textLength="12.2" clip-path="url(#terminal-3794272879-line-11)">│</text><text class="terminal-3794272879-r1" x="1464" y="288.4" textLength="12.2" clip-path="url(#terminal-3794272879-line-11)">
</text><text class="terminal-3794272879-r2" x="0" y="312.8" textLength="219.6" clip-path="url(#terminal-3794272879-line-12)">&#160;&#160;📦&#160;server-support</text><text class="terminal-3794272879-r8" x="475.8" y="312.8" textLength="12.2" clip-path="url(#terminal-3794272879-line-12)">│</text><text class="terminal-3794272879-r1" x="1464" y="312.8" textLength="12.2" clip-path="url(#terminal-3794272879-line-12)">
</text><text class="terminal-3794272879-r2" x="0" y="337.2" textLength="231.8" clip-path="url(#terminal-3794272879-line-13)">&#160;&#160;📦&#160;storage-support</text><text class="terminal-3794272879-r8" x="475.8" y="337.2" textLength="12.2" clip-path="url(#terminal-3794272879-line-13)">│</text><text class="terminal-3794272879-r1" x="1464" y="337.2" textLength="12.2" clip-path="url(#terminal-3794272879-line-13)">
</text><text class="terminal-3794272879-r2" x="0" y="361.6" textLength="256.2" clip-path="url(#terminal-3794272879-line-14)">&#160;&#160;📦&#160;structured-output</text><text class="terminal-3794272879-r8" x="475.8" y="361.6" textLength="12.2" clip-path="url(#terminal-3794272879-line-14)">│</text><text class="terminal-3794272879-r1" x="1464" y="361.6" textLength="12.2" clip-path="url(#terminal-3794272879-line-14)">
</text><text class="terminal-3794272879-r2" x="0" y="386" textLength="219.6" clip-path="url(#terminal-3794272879-line-15)">&#160;&#160;📦&#160;studio-support</text><text class="terminal-3794272879-r8" x="475.8" y="386" textLength="12.2" clip-path="url(#terminal-3794272879-line-15)">│</text><text class="terminal-3794272879-r1" x="1464" y="386" textLength="12.2" clip-path="url(#terminal-3794272879-line-15)">
</text><text class="terminal-3794272879-r2" x="0" y="410.4" textLength="195.2" clip-path="url(#terminal-3794272879-line-16)">&#160;&#160;📦&#160;tool-support</text><text class="terminal-3794272879-r8" x="475.8" y="410.4" textLength="12.2" clip-path="url(#terminal-3794272879-line-16)">│</text><text class="terminal-3794272879-r1" x="1464" y="410.4" textLength="12.2" clip-path="url(#terminal-3794272879-line-16)">
</text><text class="terminal-3794272879-r2" x="0" y="434.8" textLength="280.6" clip-path="url(#terminal-3794272879-line-17)">&#160;&#160;📦&#160;vectorstore-support</text><text class="terminal-3794272879-r8" x="475.8" y="434.8" textLength="12.2" clip-path="url(#terminal-3794272879-line-17)">│</text><text class="terminal-3794272879-r1" x="1464" y="434.8" textLength="12.2" clip-path="url(#terminal-3794272879-line-17)">
</text><text class="terminal-3794272879-r2" x="0" y="459.2" textLength="207.4" clip-path="url(#terminal-3794272879-line-18)">&#160;&#160;📦&#160;voice-support</text><text class="terminal-3794272879-r8" x="475.8" y="459.2" textLength="12.2" clip-path="url(#terminal-3794272879-line-18)">│</text><text class="terminal-3794272879-r1" x="1464" y="459.2" textLength="12.2" clip-path="url(#terminal-3794272879-line-18)">
</text><text class="terminal-3794272879-r2" x="0" y="483.6" textLength="244" clip-path="url(#terminal-3794272879-line-19)">&#160;&#160;📦&#160;workflow-support</text><text class="terminal-3794272879-r8" x="475.8" y="483.6" textLength="12.2" clip-path="url(#terminal-3794272879-line-19)">│</text><text class="terminal-3794272879-r1" x="1464" y="483.6" textLength="12.2" clip-path="url(#terminal-3794272879-line-19)">
</text><text class="terminal-3794272879-r2" x="0" y="508" textLength="207.4" clip-path="url(#terminal-3794272879-line-20)">🌐&#160;Server&#160;settings</text><text class="terminal-3794272879-r8" x="475.8" y="508" textLength="12.2" clip-path="url(#terminal-3794272879-line-20)">│</text><text class="terminal-3794272879-r1" x="1464" y="508" textLength="12.2" clip-path="url(#terminal-3794272879-line-20)">
</text><text class="terminal-3794272879-r8" x="475.8" y="532.4" textLength="12.2" clip-path="url(#terminal-3794272879-line-21)">│</text><text class="terminal-3794272879-r1" x="1464" y="532.4" textLength="12.2" clip-path="url(#terminal-3794272879-line-21)">
</text><text class="terminal-3794272879-r8" x="475.8" y="556.8" textLength="12.2" clip-path="url(#terminal-3794272879-line-22)">│</text><text class="terminal-3794272879-r1" x="1464" y="556.8" textLength="12.2" clip-path="url(#terminal-3794272879-line-22)">
</text><text class="terminal-3794272879-r8" x="475.8" y="581.2" textLength="12.2" clip-path="url(#terminal-3794272879-line-23)">│</text><text class="terminal-3794272879-r1" x="1464" y="581.2" textLength="12.2" clip-path="url(#terminal-3794272879-line-23)">
</text><text class="terminal-3794272879-r8" x="475.8" y="605.6" textLength="12.2" clip-path="url(#terminal-3794272879-line-24)">│</text><text class="terminal-3794272879-r1" x="1464" y="605.6" textLength="12.2" clip-path="url(#terminal-3794272879-line-24)">
</text><text class="terminal-3794272879-r8" x="475.8" y="630" textLength="12.2" clip-path="url(#terminal-3794272879-line-25)">│</text><text class="terminal-3794272879-r1" x="1464" y="630" textLength="12.2" clip-path="url(#terminal-3794272879-line-25)">
</text><text class="terminal-3794272879-r8" x="475.8" y="654.4" textLength="12.2" clip-path="url(#terminal-3794272879-line-26)">│</text><text class="terminal-3794272879-r1" x="1464" y="654.4" textLength="12.2" clip-path="url(#terminal-3794272879-line-26)">
</text><text class="terminal-3794272879-r8" x="475.8" y="678.8" textLength="12.2" clip-path="url(#terminal-3794272879-line-27)">│</text><text class="terminal-3794272879-r1" x="1464" y="678.8" textLength="12.2" clip-path="url(#terminal-3794272879-line-27)">
</text><text class="terminal-3794272879-r8" x="475.8" y="703.2" textLength="12.2" clip-path="url(#terminal-3794272879-line-28)">│</text><text class="terminal-3794272879-r1" x="1464" y="703.2" textLength="12.2" clip-path="url(#terminal-3794272879-line-28)">
</text><text class="terminal-3794272879-r8" x="475.8" y="727.6" textLength="12.2" clip-path="url(#terminal-3794272879-line-29)">│</text><text class="terminal-3794272879-r1" x="1464" y="727.6" textLength="12.2" clip-path="url(#terminal-3794272879-line-29)">
</text><text class="terminal-3794272879-r8" x="475.8" y="752" textLength="12.2" clip-path="url(#terminal-3794272879-line-30)">│</text><text class="terminal-3794272879-r1" x="1464" y="752" textLength="12.2" clip-path="url(#terminal-3794272879-line-30)">
</text><text class="terminal-3794272879-r9" x="0" y="776.4" textLength="195.2" clip-path="url(#terminal-3794272879-line-31)">▔▔▔▔▔▔▔▔▔▔▔▔▔▔▔▔</text><text class="terminal-3794272879-r8" x="475.8" y="776.4" textLength="12.2" clip-path="url(#terminal-3794272879-line-31)">│</text><text class="terminal-3794272879-r1" x="1464" y="776.4" textLength="12.2" clip-path="url(#terminal-3794272879-line-31)">
</text><text class="terminal-3794272879-r4" x="36.6" y="800.8" textLength="109.8" clip-path="url(#terminal-3794272879-line-32)">&#160;Refresh&#160;</text><text class="terminal-3794272879-r8" x="475.8" y="800.8" textLength="12.2" clip-path="url(#terminal-3794272879-line-32)">│</text><text class="terminal-3794272879-r1" x="1464" y="800.8" textLength="12.2" clip-path="url(#terminal-3794272879-line-32)">
</text><text class="terminal-3794272879-r10" x="0" y="825.2" textLength="195.2" clip-path="url(#terminal-3794272879-line-33)">▁▁▁▁▁▁▁▁▁▁▁▁▁▁▁▁</text><text class="terminal-3794272879-r8" x="475.8" y="825.2" textLength="12.2" clip-path="url(#terminal-3794272879-line-33)">│</text><text class="terminal-3794272879-r1" x="1464" y="825.2" textLength="12.2" clip-path="url(#terminal-3794272879-line-33)">
</text><text class="terminal-3794272879-r11" x="0" y="849.6" textLength="36.6" clip-path="url(#terminal-3794272879-line-34)">&#160;q&#160;</text><text class="terminal-3794272879-r2" x="36.6" y="849.6" textLength="61" clip-path="url(#terminal-3794272879-line-34)">Quit&#160;</text><text class="terminal-3794272879-r11" x="97.6" y="849.6" textLength="36.6" clip-path="url(#terminal-3794272879-line-34)">&#160;?&#160;</text><text class="terminal-3794272879-r2" x="134.2" y="849.6" textLength="61" clip-path="url(#terminal-3794272879-line-34)">Help&#160;</text><text class="terminal-3794272879-r12" x="1317.6" y="849.6" textLength="12.2" clip-path="url(#terminal-3794272879-line-34)">▏</text><text class="terminal-3794272879-r11" x="1329.8" y="849.6" textLength="24.4" clip-path="url(#terminal-3794272879-line-34)">^p</text><text class="terminal-3794272879-r2" x="1354.2" y="849.6" textLength="97.6" clip-path="url(#terminal-3794272879-line-34)">&#160;palette</text>
    </g>
    </g>
</svg>
